<?xml version="1.0" encoding="UTF-8"?>
<svg width="70px" height="70px" viewBox="0 0 70 70" version="1.1" xmlns="http://www.w3.org/2000/svg" xmlns:xlink="http://www.w3.org/1999/xlink">
    <!-- Generator: Sketch 48.1 (47250) - http://www.bohemiancoding.com/sketch -->
    <title>Hospital</title>
    <desc>Created with Sketch.</desc>
    <defs></defs>
    <g id="Symbols" stroke="none" stroke-width="1" fill="none" fill-rule="evenodd">
        <g id="Hospital" fill="#1A9456" fill-rule="nonzero">
            <path d="M64.5870485,63.286093 L66.1024452,63.286093 C66.9499602,63.286093 67.6366407,63.9732956 67.6366407,64.8202885 C67.6371628,65.6678035 66.9504824,66.3550062 66.1029674,66.3550062 L3.89755453,66.3550062 C3.05056165,66.3550062 2.36335905,65.6678035 2.36335905,64.8202885 C2.36335905,63.9727734 3.05056165,63.286093 3.89755453,63.286093 L5.25211651,63.286093 L5.25211651,17.7390824 C5.25211651,17.1867977 5.69983176,16.7390824 6.25211651,16.7390824 L23.6666398,16.7390824 L23.6666398,4.64499385 C23.6666398,4.0927091 24.1143551,3.64499385 24.6666398,3.64499385 L45.1323165,3.64499385 C45.6846013,3.64499385 46.1323165,4.0927091 46.1323165,4.64499385 L46.1323165,16.7390824 L63.5870485,16.7390824 C64.1393333,16.7390824 64.5870485,17.1867977 64.5870485,17.7390824 L64.5870485,63.286093 Z M13.4364071,55.3141027 L21.1089511,55.3141027 L21.1089511,47.6410365 L13.4364071,47.6410365 L13.4364071,55.3141027 Z M13.4364071,43.5491523 L21.1089511,43.5491523 L21.1089511,35.8766083 L13.4364071,35.8766083 L13.4364071,43.5491523 Z M13.4364071,31.7847241 L21.1089511,31.7847241 L21.1089511,24.1121801 L13.4364071,24.1121801 L13.4364071,31.7847241 Z M25.2008353,24.1121801 L25.2008353,31.7847241 L32.8733793,31.7847241 L32.8733793,24.1121801 L25.2008353,24.1121801 Z M25.2008353,35.8766083 L25.2008353,43.5491523 L32.8733793,43.5491523 L32.8733793,35.8766083 L25.2008353,35.8766083 Z M29.1175248,63.0787686 L40.8824752,63.0787686 L40.8824752,48.9634539 L29.1175248,48.9634539 L29.1175248,63.0787686 Z M36.9657857,43.5491523 L44.6378075,43.5491523 L44.6378075,35.8766083 L36.9657857,35.8766083 L36.9657857,43.5491523 Z M36.9657857,31.7847241 L44.6378075,31.7847241 L44.6378075,24.1121801 L36.9657857,24.1121801 L36.9657857,31.7847241 Z M48.7302139,55.3141027 L56.4022357,55.3141027 L56.4022357,47.6410365 L48.7302139,47.6410365 L48.7302139,55.3141027 Z M48.7302139,43.5491523 L56.4022357,43.5491523 L56.4022357,35.8766083 L48.7302139,35.8766083 L48.7302139,43.5491523 Z M48.7302139,31.7847241 L56.4022357,31.7847241 L56.4022357,24.1121801 L48.7302139,24.1121801 L48.7302139,31.7847241 Z M38.7449342,16.782641 C39.4502903,16.0772849 39.9104302,15.2196583 40.1255678,14.3155702 C40.1871754,14.0566023 39.868905,13.8817644 39.6811474,14.0704553 C38.1048627,15.6467625 35.5415968,15.616504 34.010548,13.9866289 C32.5671149,12.450003 32.5860616,10.0644198 34.0518484,8.54911305 C34.070334,8.53000896 34.0889546,8.51112975 34.1077326,8.49247543 C34.2960075,8.3054262 34.1200339,7.98860631 33.8618307,8.04996655 C32.9657822,8.26291144 32.1152958,8.71648472 31.4133805,9.41092254 C29.3610901,11.4413764 29.349531,14.7333641 31.388137,16.7775248 C33.4178263,18.8127688 36.7131085,18.8144555 38.7449342,16.782641 Z" id="Combined-Shape"></path>
        </g>
    </g>
</svg>