<?xml version="1.0" encoding="UTF-8"?>
<svg width="70px" height="70px" viewBox="0 0 70 70" version="1.1" xmlns="http://www.w3.org/2000/svg" xmlns:xlink="http://www.w3.org/1999/xlink">
    <!-- Generator: Sketch 48.1 (47250) - http://www.bohemiancoding.com/sketch -->
    <title>Health Center</title>
    <desc>Created with Sketch.</desc>
    <defs></defs>
    <g id="Symbols" stroke="none" stroke-width="1" fill="none" fill-rule="evenodd">
        <g id="Health-Center" fill="#1A9456" fill-rule="nonzero">
            <path d="M14.1065657,54.3522879 L14.1065657,26.450054 L54.7371893,26.450054 L54.7371893,54.3522879 L56.9365557,54.3522879 C58.0411252,54.3522879 58.9365557,55.2477184 58.9365557,56.3522879 L58.9365557,57.6040014 C58.9365557,58.7085709 58.0411252,59.6040014 56.9365557,59.6040014 L11.9071994,59.6040014 C10.8026299,59.6040014 9.90719936,58.7085709 9.90719936,57.6040014 L9.90719936,56.3522879 C9.90719936,55.2477184 10.8026299,54.3522879 11.9071994,54.3522879 L14.1065657,54.3522879 Z M26.4841731,54.3522879 L42.359582,54.3522879 L42.359582,37.855493 L26.4841731,37.855493 L26.4841731,54.3522879 Z M54.1346966,11.8417969 C54.5875935,11.8417969 54.9839492,12.146178 55.1008249,12.5837345 L57.9751833,23.3446963 C57.997668,23.4288742 58.009055,23.5156296 58.009055,23.6027587 C58.009055,24.1550434 57.5613398,24.6027587 57.009055,24.6027587 L11.8347,24.6027587 C11.747571,24.6027587 11.6608155,24.5913717 11.5766377,24.5688869 C11.0430598,24.4263631 10.7260479,23.8782742 10.8685718,23.3446963 L13.7429302,12.5837345 C13.8598058,12.146178 14.2561616,11.8417969 14.7090585,11.8417969 L54.1346966,11.8417969 Z M36.8711772,34.0264723 C37.3325013,33.577422 37.6334467,33.0314318 37.7741531,32.4558628 C37.8144463,32.2909963 37.6062879,32.1796894 37.4834888,32.2998155 C36.4525512,33.3033388 34.7760981,33.2840754 33.7747462,32.2464492 C32.8306975,31.2681881 32.8430892,29.749456 33.8017579,28.7847674 C33.813848,28.7726052 33.8260265,28.7605861 33.8383078,28.7487102 C33.9614453,28.6296292 33.8463533,28.4279324 33.6774805,28.4669961 C33.0914379,28.6025631 32.5351942,28.8913211 32.0761205,29.3334205 C30.7338608,30.6260669 30.7263008,32.7218427 32.0596105,34.0232152 C33.3870883,35.3189111 35.5423021,35.3199849 36.8711772,34.0264723 Z" id="Combined-Shape"></path>
        </g>
    </g>
</svg>