<?xml version="1.0" encoding="UTF-8"?>
<svg width="70px" height="70px" viewBox="0 0 70 70" version="1.1" xmlns="http://www.w3.org/2000/svg" xmlns:xlink="http://www.w3.org/1999/xlink">
    <!-- Generator: Sketch 48.1 (47250) - http://www.bohemiancoding.com/sketch -->
    <title>Medical Complex</title>
    <desc>Created with Sketch.</desc>
    <defs></defs>
    <g id="Symbols" stroke="none" stroke-width="1" fill="none" fill-rule="evenodd">
        <g id="Medical-Complex" fill="#1A9456" fill-rule="nonzero">
            <path d="M65.6392805,55.7620785 L65.6392805,23.4469571 C65.6392805,22.1046905 64.5506017,21.0167404 63.2083351,21.0167404 L49.67855,21.0167404 L49.67855,55.1550709 C49.67855,55.6389281 49.5911059,56.101653 49.4366214,56.5330438 L47.8495113,56.5330438 C47.9303971,56.2911152 47.9763053,56.0316978 47.9763053,55.7620785 L47.9763053,10.8735105 C47.9763053,9.53124391 46.8876265,8.44329383 45.5453599,8.44329383 L24.3190384,8.44329383 C22.9767718,8.44329383 21.8888217,9.53124391 21.8888217,10.8735105 L21.8888217,55.7620785 C21.8888217,56.0316978 21.9347299,56.2911152 22.0156156,56.5330438 L20.4292343,56.5330438 C20.2747498,56.101653 20.1873057,55.6389281 20.1873057,55.1550709 L20.1873057,21.0167404 L6.98179235,21.0167404 C5.63952574,21.0167404 4.55157566,22.1046905 4.55157566,23.4469571 L4.55157566,55.7620785 C4.55157566,56.0316978 4.5974838,56.2911152 4.67764087,56.5330438 L1.5,56.5330438 L1.5,61.5567062 L68.3658557,61.5567062 L68.3658557,56.5330438 L65.5124866,56.5330438 C65.5933724,56.2911152 65.6392805,56.0316978 65.6392805,55.7620785 Z M8.35830789,42.6066835 L8.35830789,39.1234943 L11.8422257,39.1234943 L11.8422257,42.6066835 L8.35830789,42.6066835 Z M8.35830789,36.4906988 L8.35830789,33.006781 L11.8422257,33.006781 L11.8422257,36.4906988 L8.35830789,36.4906988 Z M8.35830789,30.5765643 L8.35830789,27.0926465 L11.8422257,27.0926465 L11.8422257,30.5765643 L8.35830789,30.5765643 Z M17.2710456,42.6066835 L13.7871278,42.6066835 L13.7871278,39.1234943 L17.2710456,39.1234943 L17.2710456,42.6066835 Z M8.35830789,48.6066835 L8.35830789,45.1234943 L11.8422257,45.1234943 L11.8422257,48.6066835 L8.35830789,48.6066835 Z M17.2710456,48.6066835 L13.7871278,48.6066835 L13.7871278,45.1234943 L17.2710456,45.1234943 L17.2710456,48.6066835 Z M17.2710456,36.4906988 L13.7871278,36.4906988 L13.7871278,33.006781 L17.2710456,33.006781 L17.2710456,36.4906988 Z M17.2710456,30.5765643 L13.7871278,30.5765643 L13.7871278,27.0926465 L17.2710456,27.0926465 L17.2710456,30.5765643 Z M40.3409798,56.3705436 L30.1122086,56.3705436 L30.1122086,43.6095377 L40.3409798,43.6095377 L40.3409798,56.3705436 Z M34.9326491,23.4845458 C31.3127501,23.4845458 28.3780283,20.6279038 28.3780283,17.1043141 C28.3780283,13.5801818 31.3133076,10.7235398 34.9326491,10.7235398 C38.5531056,10.7235398 41.4878274,13.5801818 41.4878274,17.1043141 C41.4878274,20.6284465 38.5531056,23.4845458 34.9326491,23.4845458 Z M57.0508146,42.6066835 L53.5676254,42.6066835 L53.5676254,39.1234943 L57.0508146,39.1234943 L57.0508146,42.6066835 Z M57.0508146,36.4906988 L53.5676254,36.4906988 L53.5676254,33.006781 L57.0508146,33.006781 L57.0508146,36.4906988 Z M57.0508146,30.5765643 L53.5676254,30.5765643 L53.5676254,27.0926465 L57.0508146,27.0926465 L57.0508146,30.5765643 Z M62.4789058,42.6066835 L58.9957166,42.6066835 L58.9957166,39.1234943 L62.4789058,39.1234943 L62.4789058,42.6066835 Z M57.0508146,48.6066835 L53.5676254,48.6066835 L53.5676254,45.1234943 L57.0508146,45.1234943 L57.0508146,48.6066835 Z M62.4789058,48.6066835 L58.9957166,48.6066835 L58.9957166,45.1234943 L62.4789058,45.1234943 L62.4789058,48.6066835 Z M62.4789058,36.4906988 L58.9957166,36.4906988 L58.9957166,33.006781 L62.4789058,33.006781 L62.4789058,36.4906988 Z M62.4789058,30.5765643 L58.9957166,30.5765643 L58.9957166,27.0926465 L62.4789058,27.0926465 L62.4789058,30.5765643 Z M37.8493844,19.6711651 C36.2948929,21.1842902 33.7737672,21.1830341 32.2209102,19.667355 C30.6612313,18.1450355 30.6700749,15.6934392 32.2402233,14.1813274 C32.7772385,13.6641684 33.4279213,13.326385 34.1134622,13.1678015 C34.3110061,13.1221056 34.4456384,13.3580465 34.3015947,13.497345 C34.2872282,13.5112372 34.2729821,13.5252969 34.2588393,13.539524 C33.1374079,14.6679974 33.1229124,16.4445797 34.2272415,17.5889298 C35.398603,18.8027241 37.359684,18.8252581 38.5656541,17.6513567 C38.7093021,17.5108356 38.9528017,17.6410402 38.9056674,17.8338977 C38.7410719,18.5071867 38.389032,19.1458751 37.8493844,19.6711651 Z M24.976559,36.6066835 L24.976559,33.1234943 L28.4604768,33.1234943 L28.4604768,36.6066835 L24.976559,36.6066835 Z M33.8892967,36.6066835 L30.4053789,36.6066835 L30.4053789,33.1234943 L33.8892967,33.1234943 L33.8892967,36.6066835 Z M35.976559,36.6066835 L35.976559,33.1234943 L39.4604768,33.1234943 L39.4604768,36.6066835 L35.976559,36.6066835 Z M44.8892967,36.6066835 L41.4053789,36.6066835 L41.4053789,33.1234943 L44.8892967,33.1234943 L44.8892967,36.6066835 Z M24.976559,30.6066835 L24.976559,27.1234943 L28.4604768,27.1234943 L28.4604768,30.6066835 L24.976559,30.6066835 Z M33.8892967,30.6066835 L30.4053789,30.6066835 L30.4053789,27.1234943 L33.8892967,27.1234943 L33.8892967,30.6066835 Z M35.976559,30.6066835 L35.976559,27.1234943 L39.4604768,27.1234943 L39.4604768,30.6066835 L35.976559,30.6066835 Z M44.8892967,30.6066835 L41.4053789,30.6066835 L41.4053789,27.1234943 L44.8892967,27.1234943 L44.8892967,30.6066835 Z" id="Shape"></path>
        </g>
    </g>
</svg>