<?xml version="1.0" encoding="UTF-8"?>
<svg width="70px" height="70px" viewBox="0 0 70 70" version="1.1" xmlns="http://www.w3.org/2000/svg" xmlns:xlink="http://www.w3.org/1999/xlink">
    <!-- Generator: Sketch 48.1 (47250) - http://www.bohemiancoding.com/sketch -->
    <title>Surgery</title>
    <desc>Created with Sketch.</desc>
    <defs></defs>
    <g id="Symbols" stroke="none" stroke-width="1" fill="none" fill-rule="evenodd">
        <g id="Surgery" fill="#1A9456" fill-rule="nonzero">
            <path d="M63.4925313,27.6326464 L6.50746866,27.6326464 C3.47307785,27.6326464 1.00426562,30.1014587 1.00426562,33.1359823 C1.00426562,36.1705059 3.47307785,38.6391853 6.50746866,38.6391853 L8.7244995,38.6391853 L8.7244995,58.987 C8.7244995,60.0870829 9.61635809,60.9789415 10.716441,60.9789415 C11.8165238,60.9789415 12.7083824,60.0870829 12.7083824,58.987 L12.7083824,53.3515321 L57.0482024,53.3515321 L57.0482024,58.987 C57.0482024,60.0870829 57.9400609,60.9789415 59.0401438,60.9789415 C60.1402267,60.9789415 61.0320853,60.0870829 61.0320853,58.987 L61.0320853,38.6393181 L63.4923985,38.6393181 C66.5270549,38.6393181 68.9957344,36.1705059 68.9957344,33.1361151 C68.9958672,30.1014587 66.5270549,27.6326464 63.4925313,27.6326464 Z M57.0482024,49.367782 L12.7085152,49.367782 L12.7085152,38.6393181 L57.0482024,38.6393181 L57.0482024,49.367782 Z M12.1851658,12.6242971 C15.9940234,12.6242971 19.0928204,15.7230941 19.0928204,19.5320845 C19.0928204,23.3409422 15.9940234,26.4397391 12.1851658,26.4397391 C8.37630813,26.4397391 5.27751122,23.3409422 5.27737842,19.5320845 C5.27737842,15.7230941 8.37617534,12.6242971 12.1851658,12.6242971 Z M56.3216749,12.6244299 C60.8929149,12.6244299 64.6118696,16.3433846 64.6118696,20.9146247 L64.6118696,23.5964418 C64.6118696,25.1643654 63.3364959,26.4397391 61.7687052,26.4397391 L23.8495765,26.4397391 C22.2819186,26.4397391 21.0064121,25.1642326 21.0064121,23.5964418 L21.0064121,15.4677272 C21.0064121,13.8999365 22.2817858,12.6244299 23.8495765,12.6244299 L56.3216749,12.6244299 Z" id="Combined-Shape"></path>
        </g>
    </g>
</svg>