<?xml version="1.0" encoding="UTF-8"?>
<svg width="70px" height="70px" viewBox="0 0 70 70" version="1.1" xmlns="http://www.w3.org/2000/svg" xmlns:xlink="http://www.w3.org/1999/xlink">
    <!-- Generator: Sketch 48.1 (47250) - http://www.bohemiancoding.com/sketch -->
    <title>Laboratory</title>
    <desc>Created with Sketch.</desc>
    <defs></defs>
    <g id="Symbols" stroke="none" stroke-width="1" fill="none" fill-rule="evenodd">
        <g id="Laboratory" fill="#1A9456" fill-rule="nonzero">
            <path d="M20.4682143,55.4824901 C18.3307427,53.224172 16.6237865,50.6561849 15.3851104,47.8390276 C13.9198472,44.4930159 13.1721098,40.9431514 13.1721098,37.2799934 C13.1721098,33.6169109 13.9122943,30.0670464 15.3851104,26.7210347 C16.8050562,23.503498 18.8292343,20.610736 21.4047743,18.1333838 C23.9727613,15.6635844 26.963711,13.7224883 30.2869884,12.3705187 C30.7704497,12.1741432 31.2538355,11.9928735 31.7447743,11.8267096 L31.7447743,18.5487935 C29.5468039,19.5608825 27.5151485,20.9355109 25.7402162,22.642467 C21.6691259,26.5624238 19.4259136,31.7588211 19.4259136,37.2799934 C19.4259136,42.8011656 21.6691259,47.997563 25.7401407,51.9175953 C27.2205097,53.3449429 28.8821484,54.5383772 30.6721865,55.4824901 L38.1646664,55.4824901 L38.1646664,51.743803 L33.2552794,51.743803 C32.2129032,51.743803 31.3670536,50.8979534 31.3670536,49.8555772 L31.3670536,48.9039114 C31.3670536,47.8615352 32.2129032,47.0156856 33.2552794,47.0156856 L48.1420516,47.0156856 C49.1843522,47.0156856 50.0302774,47.8615352 50.0302774,48.9039114 L50.0302774,49.8555772 C50.0302774,50.8979534 49.1843522,51.743803 48.1420516,51.743803 L43.2326645,51.743803 L43.2326645,55.4824901 L54.9396644,55.4824901 C55.9819651,55.4824901 56.8278902,56.3283397 56.8278902,57.3707159 L56.8278902,64.9613836 C56.8278902,66.0037597 55.9819651,66.8496094 54.9396644,66.8496094 L16.4802814,66.8496094 C15.4379807,66.8496094 14.5920556,66.0037597 14.5920556,64.9613836 L14.5920556,57.3707159 C14.5920556,56.3283397 15.4379807,55.4824901 16.4802814,55.4824901 L20.4682143,55.4824901 Z M47.3867612,23.3297812 L47.3866857,23.3222283 L34.0633645,23.3222283 C34.0483342,23.3222283 34.0256,23.3222283 34.0105697,23.3222283 L34.0105697,17.6575509 L34.0105697,11.1469483 L34.0105697,9.02458254 C34.0105697,7.9822819 34.8564193,7.13635675 35.8987955,7.13635675 L36.6012155,7.13635675 L36.6012155,2.7632258 C36.6012155,1.72092516 37.4471406,0.875 38.4894413,0.875 L42.9078896,0.875 C43.9501903,0.875 44.7961154,1.72092516 44.7961154,2.7632258 L44.7961154,7.13635675 L45.4985354,7.13635675 C46.5408361,7.13635675 47.3867612,7.9822819 47.3867612,9.02458254 L47.3867612,23.3297812 Z M34.06344,32.937074 C33.3459142,32.937074 32.7039174,32.5216644 32.3792181,31.9097282 C32.2508188,31.653005 32.1752897,31.3584418 32.1752897,31.0487727 L32.1752897,27.4838024 C32.1752897,26.8947515 32.4547472,26.3659727 32.8777853,26.0185392 C33.1874543,25.7617405 33.5802053,25.6106824 34.0107207,25.5955766 C34.025751,25.5955766 34.0484853,25.5955766 34.0635155,25.5955766 L47.3868368,25.5955766 L47.7040587,25.5955766 C47.9985464,25.5955766 48.2780038,25.6786586 48.5122193,25.8297166 C48.9351819,26.1016211 49.2146393,26.5698256 49.2146393,27.1061573 L49.2146393,28.4128095 L49.2146393,28.6016321 C49.2146393,29.3191579 48.7161477,29.9385715 48.0137277,30.0820011 L34.4487136,32.8993095 C34.3202387,32.9219682 34.1918394,32.937074 34.06344,32.937074 Z" id="Combined-Shape"></path>
        </g>
    </g>
</svg>