<?xml version="1.0" encoding="UTF-8"?>
<svg width="70px" height="70px" viewBox="0 0 70 70" version="1.1" xmlns="http://www.w3.org/2000/svg" xmlns:xlink="http://www.w3.org/1999/xlink">
    <!-- Generator: Sketch 48.1 (47250) - http://www.bohemiancoding.com/sketch -->
    <title>Ray</title>
    <desc>Created with Sketch.</desc>
    <defs></defs>
    <g id="Symbols" stroke="none" stroke-width="1" fill="none" fill-rule="evenodd">
        <g id="Ray" fill-rule="nonzero">
            <path d="M9.02617943,10.1792384 L9.02617943,59.8207616 C9.02617943,60.9253311 9.92160993,61.8207616 11.0261794,61.8207616 L58.9738206,61.8207616 C60.0783901,61.8207616 60.9738206,60.9253311 60.9738206,59.8207616 L60.9738206,10.1792384 C60.9738206,9.07466893 60.0783901,8.17923843 58.9738206,8.17923843 L11.0261794,8.17923843 C9.92160993,8.17923843 9.02617943,9.07466893 9.02617943,10.1792384 Z" id="Shape" fill="#1A9456"></path>
            <path d="M50.6600091,30.0477103 L36.7400428,30.0477103 L36.7400428,25.229246 L47.313937,25.229246 C48.2509024,25.229246 49.0539798,24.4261686 49.0539798,23.4892032 C49.0539798,22.5522377 48.2509024,21.7491603 47.313937,21.7491603 L36.7400428,21.7491603 L36.7400428,17.0645841 C36.7400428,16.1276186 35.9369654,15.3245412 35,15.3245412 C34.0630346,15.3245412 33.2599572,16.1276186 33.2599572,17.0645841 L33.2599572,21.7491603 L22.686063,21.7491603 C21.7490976,21.7491603 20.9460202,22.5522377 20.9460202,23.4892032 C20.9460202,24.4261686 21.7490976,25.229246 22.686063,25.229246 L33.2599572,25.229246 L33.2599572,30.0477103 L19.3399909,30.0477103 C18.4030255,30.0477103 17.5999481,30.8507877 17.5999481,31.7877532 C17.5999481,32.7247186 18.4030255,33.527796 19.3399909,33.527796 L33.3938452,33.527796 L33.3938452,38.3462604 L22.8199511,38.3462604 C21.8829857,38.3462604 21.0799083,39.1493377 21.0799083,40.0863032 C21.0799083,41.0232686 21.8829857,41.826346 22.8199511,41.826346 L33.3938452,41.826346 L33.3938452,46.5107968 L24.9615326,46.5107968 C22.8199511,46.5107968 20.8122576,48.1169516 20.6784951,50.1246451 C20.4108444,52.5338772 22.2846498,54.6754588 24.693882,54.6754588 L45.0384674,54.6754588 C47.1800489,54.6754588 49.1877424,53.069304 49.3215049,51.0616105 C49.5891556,48.6523784 47.7153502,46.5107968 45.306118,46.5107968 L36.6061548,46.5107968 L36.6061548,41.5584444 L47.1800489,41.5584444 C48.1170143,41.5584444 48.9200917,40.755367 48.9200917,39.8184016 C48.9200917,38.8814361 48.1170143,38.0783588 47.1800489,38.0783588 L36.6061548,38.0783588 L36.6061548,33.2598944 L50.6600091,33.2598944 C51.5969745,33.2598944 52.4000519,32.456817 52.4000519,31.5198516 C52.4000519,30.8507877 51.5969745,30.0477103 50.6600091,30.0477103 Z" id="Shape" fill="#F2F2F2"></path>
        </g>
    </g>
</svg>