<?xml version="1.0" encoding="UTF-8"?>
<svg width="70px" height="70px" viewBox="0 0 70 70" version="1.1" xmlns="http://www.w3.org/2000/svg" xmlns:xlink="http://www.w3.org/1999/xlink">
    <!-- Generator: Sketch 48.1 (47250) - http://www.bohemiancoding.com/sketch -->
    <title>Pharmacy</title>
    <desc>Created with Sketch.</desc>
    <defs></defs>
    <g id="Symbols" stroke="none" stroke-width="1" fill="none" fill-rule="evenodd">
        <g id="Pharmacy" fill="#1A9456" fill-rule="nonzero">
            <path d="M41.6352105,8.80001815 C39.0246336,8.80001815 36.5182715,9.62623798 34.4700795,10.9245834 L23.8957849,10.9245834 C24.7151311,9.64012403 25.6037687,8.45286697 26.7563107,7.43224248 C28.6379395,5.75897376 30.8318656,4.43285623 33.1786076,3.51637709 C37.670744,1.75979209 42.7322777,1.53067231 47.3770912,2.82207472 C53.5981099,4.55783065 58.4859291,9.25825772 60.8882848,15.0695686 C61.6173023,16.8330966 62.110257,18.693827 62.3463198,20.5892725 C62.700414,23.4290386 62.4504651,26.3380961 61.6381313,29.0805905 C59.020542,37.9121167 50.8138879,44.1816671 41.5657803,44.1816671 L33.7201635,44.1816671 L33.7201635,36.544341 L41.5657803,36.544341 C48.196368,36.544341 54.0354509,31.3787313 54.8547277,24.8036879 C55.8407065,16.8469827 50.0154402,8.80001815 41.6352105,8.80001815 Z M25.1108141,33.9824347 C15.8210483,32.5868175 8.54475943,25.0675228 7.51024889,15.6736116 C7.37138842,14.4446964 8.33646872,13.3685278 9.57926997,13.3685278 L23.0765081,13.3685278 L32.6301782,13.3685278 L46.8910795,13.3685278 C48.1269377,13.3685278 49.098961,14.4446964 48.9601006,15.6736116 C47.9256595,25.0675228 40.6423581,32.586748 31.3595354,33.9823652 L31.3595354,47.3546289 C28.9989073,46.5422952 26.839627,45.9521381 25.1108141,45.5355567 L25.1108141,33.9824347 Z M34.3797507,67.9824219 L22.0628961,67.9824219 C21.4171949,67.9824219 20.9311832,67.3992079 21.0353286,66.7673927 C21.3407522,64.9483205 22.3197879,63.3583681 23.7083927,62.2613703 C23.9305,62.0877947 24.1596892,61.9211622 24.4026951,61.7753587 C24.6248024,61.6364982 24.8609346,61.5045807 25.0969974,61.3934924 L25.0969974,58.0261258 C26.9438418,58.5537956 29.1447803,59.0536934 31.3457188,59.9701725 L31.3457188,61.3934924 C31.5817122,61.5115238 31.8178444,61.6364982 32.0400212,61.7753587 C32.283027,61.9281052 32.5121468,62.0877947 32.7343235,62.2613703 C34.1229283,63.3582986 35.1018946,64.9483205 35.4073877,66.7673927 C35.511533,67.4060815 35.0255214,67.9824219 34.3797507,67.9824219 Z M22.6669391,44.2302683 C20.695051,44.6746912 20.695051,47.0213638 23.7501203,47.6947677 C24.4374796,47.8405712 25.131782,48.0141468 25.8121983,48.1877224 C27.6798023,48.659848 29.526716,49.2223023 31.3457882,49.8610605 C37.1848712,51.9092525 42.8087204,54.7906074 47.5230335,58.8313777 C48.66162,59.8104135 49.0852139,61.3100372 48.7380627,62.6709393 C48.6964045,62.8236164 48.6477339,62.9833754 48.5853162,63.1360524 C48.5575441,63.1986091 48.529772,63.2680393 48.5019999,63.3305265 C48.4117406,63.5249312 48.3075952,63.7123928 48.1826208,63.8929115 C48.1061781,64.0039998 48.0298743,64.1081452 47.9396149,64.2122906 C47.1827559,65.0940546 46.1135303,65.5453511 45.0373616,65.5453511 C44.155667,65.5453511 43.2738336,65.2398581 42.5517591,64.621929 C37.1986878,60.0325903 30.2973222,57.1720645 23.507045,55.4710237 C23.500102,55.4710237 23.500102,55.4710237 23.500102,55.4710237 C22.0004089,55.0961004 20.4937727,54.7767213 19.1607121,53.9505015 C16.4182178,52.2633467 14.6894049,49.1737012 14.6894049,45.9521381 C14.6894049,40.8976169 17.6609496,36.7595747 22.6669391,36.558227 L22.6669391,44.2302683 Z" id="Combined-Shape"></path>
        </g>
    </g>
</svg>