<?xml version="1.0" encoding="UTF-8"?>
<svg width="70px" height="70px" viewBox="0 0 70 70" version="1.1" xmlns="http://www.w3.org/2000/svg" xmlns:xlink="http://www.w3.org/1999/xlink">
    <!-- Generator: Sketch 48.1 (47250) - http://www.bohemiancoding.com/sketch -->
    <title>Clinics</title>
    <desc>Created with Sketch.</desc>
    <defs></defs>
    <g id="Symbols" stroke="none" stroke-width="1" fill="none" fill-rule="evenodd">
        <g id="Clinics" fill="#1A9456" fill-rule="nonzero">
            <path d="M64.0757986,39.10709 L64.0757986,32.1709677 C64.0757986,27.0321132 59.9088,22.8651146 54.7699454,22.8651146 C49.6310909,22.8651146 45.4640923,27.0321132 45.4640923,32.1709677 L45.4640923,49.6510609 C45.4640923,55.4821964 40.7512569,60.1950318 34.9201214,60.1950318 C29.088986,60.1950318 24.3761505,55.4821964 24.3761505,49.6510609 L24.3761505,43.5004112 C33.6420644,42.2622934 40.9243271,34.9134652 41.1639628,26.0602573 L41.1639628,9.685151 C41.1639628,8.15414513 39.9125319,6.90271424 38.381526,6.90271424 C38.3282736,6.90271424 31.9779275,6.90271424 31.9779275,6.90271424 C31.8314835,5.5048393 30.6466181,4.39985245 29.222117,4.39985245 C27.6911111,4.39985245 26.4396802,5.65128334 26.4396802,7.18228922 L26.4396802,12.1746997 C26.4396802,13.7057056 27.6911111,14.9571365 29.222117,14.9571365 C30.6599312,14.9571365 31.7249787,13.8521496 31.9646144,12.4542747 L35.6124024,12.4542747 L35.6124024,26.0602573 C35.6124024,32.7168046 29.368561,38.1352341 21.7268447,38.1352341 C14.0984415,38.1352341 7.84128706,32.7168046 7.84128706,26.0602573 L7.84128706,12.4542747 L11.3293178,12.4542747 C11.4757619,13.8521496 12.6606273,14.9571365 14.0851284,14.9571365 C15.6161343,14.9571365 16.7211211,13.7057056 16.8675652,12.1746997 L16.8675652,7.18228922 C16.8675652,5.65128334 15.6161343,4.39985245 14.0851284,4.39985245 C12.6473142,4.39985245 11.4624488,5.5048393 11.3293178,6.90271424 L5.07216339,6.90271424 C3.5677837,6.90271424 2.31635281,8.15414513 2.31635281,9.67183791 L2.31635281,26.0469442 C2.31635281,34.9001521 9.4654846,42.2622934 18.8379032,43.4870981 L18.8379032,49.6510609 C18.8379032,58.3977641 26.0536004,65.6134613 34.8003036,65.6134613 C43.6801377,65.6134613 50.762704,58.530895 51.042279,49.6510609 L51.042279,32.1576547 C51.042279,30.0808119 52.7064158,28.4166751 54.7832585,28.4166751 C56.8601013,28.4166751 58.5242381,30.0808119 58.5242381,32.1576547 L58.5242381,39.0005853 C56.3275775,40.0256935 54.7832585,42.2622934 54.7832585,44.7917814 C54.7832585,48.2664991 57.5656953,51.1820668 61.1735439,51.1820668 C64.6482616,51.1820668 67.5638293,48.39963 67.5638293,44.7917814 C67.5505162,42.342172 66.1659544,40.1721376 64.0757986,39.10709 Z M61.1602308,45.7636373 C60.6010809,45.7636373 60.1883749,45.3509314 60.1883749,44.7917814 C60.1883749,44.2326314 60.6010809,43.8199255 61.1602308,43.8199255 C61.7193808,43.8199255 62.1320868,44.3790755 62.1320868,44.7917814 C62.1320868,45.3509314 61.7193808,45.7636373 61.1602308,45.7636373 Z" id="Shape"></path>
        </g>
    </g>
</svg>