<svg xmlns="http://www.w3.org/2000/svg" width="70" height="70" viewBox="0 0 70 70">
    <path fill="#A27F13" fill-rule="nonzero" d="M40.326 49.656c-1.977-.99-5.262-2.631-6.06-3.384 3.34-4.1 5.274-8.733 5.274-12.787 0-2.751 0-6.176-1.54-9.23-1.388-2.748-4.49-6.025-11.386-6.025-6.896 0-9.997 3.277-11.385 6.025-1.542 3.054-1.542 6.478-1.542 9.23 0 4.055 1.934 8.686 5.273 12.786-.797.756-4.082 2.397-6.058 3.384-3.915 1.96-6.401 3.255-7.887 4.74-3.29 3.291-3.538 8.815-3.555 9.887a4.183 4.183 0 0 0 1.203 3.005 4.19 4.19 0 0 0 2.989 1.254h41.924a4.194 4.194 0 0 0 4.191-4.258c-.016-1.073-.264-6.596-3.554-9.888-1.486-1.484-3.972-2.78-7.887-4.74zM5.651 64.353c.028-1.76.551-5.214 2.329-6.994 1.028-1.027 3.466-2.286 6.795-3.953 3.94-1.967 6.004-3.08 7.066-4.088l2.827-2.674-2.455-3.017c-2.754-3.382-4.334-7.08-4.334-10.142 0-2.428 0-5.179 1.091-7.34 1.266-2.505 3.767-3.723 7.644-3.723 3.877 0 6.379 1.218 7.644 3.723 1.092 2.162 1.092 4.912 1.092 7.34 0 3.063-1.579 6.758-4.335 10.142l-2.458 3.02 2.83 2.674c1.06 1.003 3.123 2.115 7.065 4.084 3.329 1.669 5.77 2.928 6.797 3.955 1.781 1.783 2.302 5.233 2.328 6.99l-41.926.003zm59.333-26.728c-1.485-1.485-3.97-2.78-7.887-4.74-1.976-.989-5.262-2.63-6.059-3.383 3.338-4.101 5.275-8.733 5.275-12.787 0-2.751 0-6.176-1.542-9.23-1.388-2.748-4.49-6.026-11.386-6.026-6.896 0-9.998 3.278-11.386 6.026-1.436 2.845-1.533 6.003-1.54 8.648h4.196c.008-2.28.081-4.765 1.087-6.758 1.263-2.505 3.766-3.723 7.643-3.723 3.878 0 6.378 1.218 7.643 3.723 1.092 2.162 1.092 4.913 1.092 7.34 0 3.062-1.581 6.758-4.333 10.14l-2.458 3.022 2.83 2.673c1.06 1.004 3.121 2.115 7.06 4.085 3.334 1.668 5.773 2.927 6.798 3.955 1.784 1.783 2.304 5.232 2.33 6.989H45.482l6.287 4.193h12.578a4.198 4.198 0 0 0 4.193-4.259c-.016-1.073-.266-6.597-3.556-9.888z"/>
</svg>
