<svg xmlns="http://www.w3.org/2000/svg" width="70" height="70" viewBox="0 0 70 70">
    <path fill="#A27F13" fill-rule="nonzero" d="M6.56 59.717V10.962a4.068 4.068 0 0 1 4.063-4.063h40.629a4.066 4.066 0 0 1 4.063 4.063v23.885l4.063-4.063V10.962a8.126 8.126 0 0 0-8.126-8.126h-40.63a8.126 8.126 0 0 0-8.125 8.126v48.755a8.126 8.126 0 0 0 8.126 8.126h22.346V63.78H10.623a4.068 4.068 0 0 1-4.063-4.063zm40.629-44.692H14.685v4.063H47.19v-4.063zm0 8.126H14.685v4.062H47.19v-4.062zm0 8.125H14.685v4.063H47.19v-4.063zm-32.504 12.19h16.252v-4.064H14.685v4.063zm51.628-4.064L63.44 36.53a4.049 4.049 0 0 0-2.872-1.19c-1.04 0-2.08.396-2.872 1.19L40.253 53.972c-.793.793-3.221 3.862-3.221 4.902L35 67.843l8.967-2.032s4.11-2.428 4.904-3.222l17.442-17.442a4.061 4.061 0 0 0 0-5.745zM47.439 61.15c-.23.218-1.026.756-1.998 1.375l-5.263-5.263c.54-.74 1.14-1.484 1.512-1.853l13.133-13.133 5.745 5.746-13.13 13.128z"/>
</svg>
