<svg xmlns="http://www.w3.org/2000/svg" width="30" height="30" viewBox="0 0 30 30">
    <g fill="#1A9456" fill-rule="nonzero">
        <path d="M24.25 5H20.5v-.75C20.5 3.01 19.49 2 18.25 2h-6C11.01 2 10 3.01 10 4.25V5H6.25C5.01 5 4 6.01 4 7.25c0 .996.651 1.843 1.55 2.138l1.338 16.149A2.263 2.263 0 0 0 9.13 27.6h12.24a2.263 2.263 0 0 0 2.242-2.064L24.95 9.388A2.253 2.253 0 0 0 26.5 7.25C26.5 6.01 25.49 5 24.25 5zM11.5 4.25a.75.75 0 0 1 .75-.75h6a.75.75 0 0 1 .75.75V5h-7.5v-.75zm10.617 21.162a.754.754 0 0 1-.747.688H9.13a.754.754 0 0 1-.747-.687L7.065 9.5h16.37l-1.318 15.912zM24.25 8h-18a.75.75 0 0 1 0-1.5h18a.75.75 0 0 1 0 1.5z"/>
        <path d="M12.249 23.804l-.75-12.1a.751.751 0 0 0-1.498.092l.75 12.1a.75.75 0 1 0 1.498-.092zM15.25 11a.75.75 0 0 0-.75.75v12.1a.75.75 0 0 0 1.5 0v-12.1a.75.75 0 0 0-.75-.75zM19.796 11.001a.75.75 0 0 0-.795.703l-.75 12.1a.75.75 0 0 0 1.498.092l.75-12.1a.75.75 0 0 0-.703-.795z"/>
    </g>
</svg>
