<?xml version="1.0" encoding="utf-8"?>
<!-- Generator: Adobe Illustrator 21.1.0, SVG Export Plug-In . SVG Version: 6.00 Build 0)  -->
<svg version="1.1" id="Layer_1" xmlns="http://www.w3.org/2000/svg" xmlns:xlink="http://www.w3.org/1999/xlink" x="0px" y="0px"
	 viewBox="0 0 283.5 283.5" style="enable-background:new 0 0 283.5 283.5;" xml:space="preserve">
<style type="text/css">
	.st0{fill:#1E1656;}
	.st1{fill:#722EA5;}
	.st2{fill:#2A6EBB;}
	.st3{fill:#952D98;}
	.st4{fill:#44C8F5;}
	.st5{fill:#808285;}
</style>
<g id="Artwork">
</g>
<g id="Minimam_Clear_Space">
</g>
<polyline class="st0" points="120.7,156.8 90.5,139.3 90.5,104.5 120.7,121.9 120.7,156.8 "/>
<polyline class="st0" points="120.7,52.3 90.5,69.7 90.5,104.5 120.7,87.1 120.7,52.3 "/>
<polyline class="st0" points="150.8,0 120.7,17.4 120.7,52.3 150.8,34.8 150.8,0 "/>
<polyline class="st0" points="60.3,52.3 30.2,69.7 30.2,104.5 60.3,87.1 60.3,52.3 "/>
<polyline class="st1" points="90.5,104.5 60.3,87.1 60.3,52.3 90.5,69.7 90.5,104.5 "/>
<polyline class="st2" points="211.2,104.5 181,87.1 181,52.3 211.2,69.7 211.2,104.5 "/>
<polygon class="st3" points="0,156.8 0,156.8 30.2,174.2 60.3,156.8 30.2,139.3 "/>
<polygon class="st3" points="60.3,156.8 60.3,156.8 90.5,174.2 120.7,156.8 90.5,139.3 "/>
<polygon class="st4" points="90.5,104.5 90.5,104.5 120.7,121.9 150.8,104.5 120.7,87.1 "/>
<polygon class="st4" points="150.8,104.5 150.8,104.5 181,121.9 211.2,104.5 181,87.1 "/>
<g>
	<path class="st5" d="M120.7,181.4c0,5.8,0,36.3,0,44.5H90.3c-0.3,0-0.5,0.1-0.7,0.3l-9,15.2c-0.3,0.5-0.4,0.7-0.2,1.1
		c0.1,0.4,0.5,0.6,0.9,0.6h103.9c4.7-0.1,8.8-2.4,11.5-5.8c2.7,3.4,6.8,5.7,11.5,5.8h74.3c0.5,0,1-0.4,1-1v-15.3
		c0-0.3-0.1-0.5-0.3-0.7c-0.2-0.2-0.4-0.3-0.7-0.3H243v-24.2c0-2.1,1.7-3.9,3.8-3.9h26.5c0.3,0,0.5-0.1,0.7-0.3l9.1-15.4
		c0.3-0.5,0.4-0.7,0.2-1.1c-0.2-0.4-0.5-0.6-0.9-0.6h-40.1c-9,0-16.7,7.2-16.7,15.7v29.8h-15l0,0V150c0-0.4-0.2-0.8-0.6-0.9
		c-0.4-0.1-0.6-0.1-1.1,0.2l-15.3,9c-0.2,0.2-0.3,0.5-0.3,0.7v66.8l0,0h-15v-30c0-8.4-7.6-15.5-16.5-15.5h-40.3
		C120.7,180.4,120.7,181.4,120.7,181.4z M161.3,225.9h-19.4l0,0c-2.1,0-3.9-1.7-3.9-3.8c0,0,0,0,0-0.1v-24.2h19.5
		c2.1,0.1,3.8,1.8,3.8,3.9L161.3,225.9L161.3,225.9z"/>
</g>
<g>
	<path class="st5" d="M215.9,255c0-0.3,0.2-0.4,0.4-0.4h18.5c0.3,0,0.4,0.2,0.4,0.4v4.5c0,0.3-0.2,0.4-0.4,0.4h-12.5
		c-0.2,0-0.3,0.1-0.3,0.3v5.7c0,0.2,0.1,0.3,0.3,0.3h10.4c0.3,0,0.4,0.2,0.4,0.4v4.5c0,0.3-0.2,0.4-0.4,0.4h-10.4
		c-0.2,0-0.3,0.1-0.3,0.3v6c0,0.2,0.1,0.3,0.3,0.3h12.5c0.3,0,0.4,0.2,0.4,0.4v4.5c0,0.3-0.2,0.4-0.4,0.4h-18.5
		c-0.3,0-0.4-0.2-0.4-0.4V255z"/>
	<path class="st5" d="M246.2,283.7c-4.5,0-6.4-2-6.4-6.5V255c0-0.3,0.2-0.4,0.4-0.4h5.1c0.3,0,0.4,0.2,0.4,0.4v21.7
		c0,1.4,0.6,2,1.8,2h0.9c0.3,0,0.4,0.2,0.4,0.4v4.2c0,0.3-0.2,0.4-0.4,0.4H246.2z"/>
	<path class="st5" d="M277.9,283.5c-0.3,0-0.4-0.2-0.4-0.4v-11.8c0-2.3-1.1-3.7-3.2-3.7c-2,0-3.2,1.5-3.2,3.7V283
		c0,0.3-0.2,0.4-0.4,0.4h-5.1c-0.3,0-0.4-0.2-0.4-0.4v-11.8c0-2.3-1.1-3.7-3.2-3.7c-2,0-3.2,1.5-3.2,3.7V283c0,0.3-0.2,0.4-0.4,0.4
		h-5.1c-0.3,0-0.4-0.2-0.4-0.4v-19.7c0-0.3,0.2-0.4,0.4-0.4h5.1c0.3,0,0.4,0.2,0.4,0.4v1.4l0,0c0.9-1.3,2.7-2.3,5.3-2.3
		c2.5,0,4.3,0.9,5.5,2.6l0,0c1.5-1.6,3.6-2.6,6.5-2.6c4.8,0,7.4,3.1,7.4,7.6v13c0,0.3-0.2,0.4-0.4,0.4h-5.2V283.5z"/>
</g>
</svg>
