<svg xmlns="http://www.w3.org/2000/svg" width="50" height="50" viewBox="0 0 50 50">
    <path fill="#1A9456" fill-rule="nonzero" d="M47.373 46.39h1.146a1.16 1.16 0 0 1 0 2.32H1.482a1.16 1.16 0 0 1 0-2.32h1.024V12.19a1 1 0 0 1 1-1H16.43V2.29a1 1 0 0 1 1-1h14.988a1 1 0 0 1 1 1v8.901h12.955a1 1 0 0 1 1 1V46.39zM8.693 40.36h5.803V34.56H8.694v5.802zm0-8.896h5.803v-5.802H8.694v5.802zm0-8.896h5.803v-5.802H8.694v5.802zm8.897-5.802v5.802h5.802v-5.802H17.59zm0 8.896v5.802h5.802v-5.802H17.59zm2.962 20.57h8.896V35.559h-8.896v10.674zm5.935-14.768h5.801v-5.802h-5.801v5.802zm0-8.896h5.801v-5.802h-5.801v5.802zm8.896 17.792h5.801V34.56h-5.801v5.802zm0-8.896h5.801v-5.802h-5.801v5.802zm0-8.896h5.801v-5.802h-5.801v5.802zm-7.551-11.345a3.912 3.912 0 0 0 1.044-1.865c.046-.196-.194-.328-.336-.186a2.983 2.983 0 0 1-4.288-.063 2.974 2.974 0 0 1 .073-4.155c.143-.141.01-.38-.186-.334a3.911 3.911 0 0 0-1.851 1.029 3.924 3.924 0 0 0-.02 5.57 3.931 3.931 0 0 0 5.564.004z"/>
</svg>
