<svg xmlns="http://www.w3.org/2000/svg" width="70" height="70" viewBox="0 0 70 70">
    <path fill="#1A9456" fill-rule="nonzero" d="M20.468 55.482a26.749 26.749 0 0 1-5.083-7.643 26.16 26.16 0 0 1-2.213-10.559c0-3.663.74-7.213 2.213-10.559a26.995 26.995 0 0 1 6.02-8.588 27.957 27.957 0 0 1 10.34-6.306v6.722a21.82 21.82 0 0 0-6.005 4.093c-4.07 3.92-6.314 9.117-6.314 14.638 0 5.521 2.243 10.718 6.314 14.638a21.65 21.65 0 0 0 4.932 3.564h7.493v-3.738h-4.91a1.889 1.889 0 0 1-1.888-1.888v-.952c0-1.042.846-1.888 1.888-1.888h14.887c1.042 0 1.888.846 1.888 1.888v.952a1.889 1.889 0 0 1-1.888 1.888h-4.91v3.738H54.94c1.042 0 1.888.846 1.888 1.889v7.59a1.889 1.889 0 0 1-1.888 1.889H16.48a1.889 1.889 0 0 1-1.888-1.889v-7.59c0-1.043.846-1.889 1.888-1.889h3.988zM47.387 23.33v-.008H34.01V9.025c0-1.043.845-1.889 1.888-1.889h.702V2.763c0-1.042.846-1.888 1.888-1.888h4.419c1.042 0 1.888.846 1.888 1.888v4.373h.703c1.042 0 1.888.846 1.888 1.889V23.33zm-13.324 9.607a1.92 1.92 0 0 1-1.684-1.027 1.928 1.928 0 0 1-.204-.861v-3.565a1.902 1.902 0 0 1 1.836-1.888H47.704a1.514 1.514 0 0 1 1.51 1.51v1.496c0 .717-.498 1.337-1.2 1.48l-13.565 2.817a2.22 2.22 0 0 1-.386.038z"/>
</svg>
