<svg xmlns="http://www.w3.org/2000/svg" xmlns:xlink="http://www.w3.org/1999/xlink" width="1500" height="122" viewBox="0 0 1500 122">
    <defs>
        <path id="a" d="M.043 0h1499.001v122H.043z"/>
    </defs>
    <g fill="none" fill-rule="evenodd">
        <mask id="b" fill="#fff">
            <use xlink:href="#a"/>
        </mask>
        <g fill="#000" mask="url(#b)" opacity=".03">
            <path d="M1237.34 135.995c23.72-19.224 45.81-32.351 65.41-41.519 42.714-19.9 94.772-28.524 140.156-12.604 55.395 19.238 88.097 67.663 94.104 76.95l-5.34 2.653c-5.338-9.287-28.698-27.197-28.698-27.197-59.399-45.772-147.497 3.98-147.497 3.98-15.35 7.297-38.71 24.544-61.401 43.118-.947.753-1.892 1.508-2.833 2.266.941.757 1.886 1.513 2.833 2.266 22.692 18.574 46.05 35.821 61.401 43.118 0 0 88.098 49.752 147.497 3.98 0 0 23.36-17.91 28.699-27.198l5.34 2.654c-6.008 9.287-38.71 57.712-94.105 76.95-45.384 15.92-97.442 7.296-140.156-12.604-19.6-9.168-41.69-22.295-65.41-41.519-18.14 17.248-35.755 34.924-53.566 52.47 14.297 10.98 28.594 21.944 42.892 32.279 28.03 19.9 57.397 37.811 89.432 50.415 26.03 10.614 48.721 14.594 66.074 16.584 28.698 2.653 58.731-1.327 84.76-14.594 77.42-37.148 88.098-81.593 81.424-62.356-15.35 41.792-44.049 76.287-83.426 96.85-64.738 33.832-137.486 18.575-184.204.664-34.706-13.267-70.078-33.168-101.446-52.405-12.099-7.638-25.238-16.31-39.115-25.754a857.716 857.716 0 0 1-21.62 19.12c-13.348 11.94-25.361 21.228-36.04 29.188-33.37 24.544-66.073 43.782-107.452 48.425-91.707 9.921-154.839-57.245-162.688-66.054-29.356 18.212-61.757 35.917-93.597 47.48-47.386 17.91-119.466 33.831-184.204-.663-39.377-20.564-68.076-55.06-83.426-96.85-6.674-18.575 4.004 25.207 81.424 62.355 26.696 12.604 56.062 17.247 84.76 14.594 17.353-1.99 39.377-5.97 66.074-16.584 32.035-12.604 61.401-31.178 89.432-50.415 14.683-10.614 29.366-21.228 44.05-33.168 40.014-31.693 78.271-65.133 116.417-99.228-38.146-34.095-76.403-67.535-116.418-99.228-14.683-11.94-29.366-22.554-44.049-33.168-28.03-19.237-57.397-37.811-89.432-50.415-26.697-10.614-48.721-14.594-66.074-16.584-28.698-2.654-58.064 1.99-84.76 14.594-77.42 37.148-88.098 80.93-81.424 62.355 15.35-41.791 44.049-76.286 83.426-96.85 64.738-34.494 136.818-18.574 184.204-.663 31.84 11.563 64.241 29.268 93.597 47.48 7.849-8.81 70.981-75.975 162.688-66.054 41.38 4.643 74.082 23.88 107.453 48.425 10.678 7.96 22.691 17.247 36.04 29.188a857.716 857.716 0 0 1 21.619 19.12c13.877-9.444 27.016-18.116 39.115-25.754 31.368-19.237 66.74-39.138 101.446-52.405 46.718-17.91 119.466-33.168 184.204.663 39.377 20.564 68.076 55.059 83.426 96.85 6.674 19.238-4.004-25.207-81.424-62.355-26.029-13.267-56.062-17.248-84.76-14.594-17.353 1.99-40.045 5.97-66.074 16.584-32.035 12.604-61.401 30.514-89.432 50.415-14.298 10.335-28.595 21.299-42.892 32.279 17.811 17.546 35.425 35.221 53.566 52.47zm-50.983 47.647l-20.426-19.625c-12.274-11.513-24.46-23.516-36.671-35.639-21.234 18.105-42.165 36.586-63.062 55.264 20.897 18.678 41.828 37.159 63.062 55.264 12.212-12.124 24.397-24.126 36.671-35.64l20.426-19.624zM1082.42 284.874c-27.06-19.499-55.18-40.333-82.672-61.043-63.18 47.594-129.675 95.846-179.011 127.035 71.77 59.624 151.251 22.683 200.368-13.6 21.19-15.592 41.473-33.552 61.315-52.392zM820.736 16.418c49.336 31.188 115.83 79.441 179.011 127.035 27.492-20.71 55.612-41.545 82.672-61.044-19.842-18.84-40.125-36.8-61.315-52.39-49.117-36.285-128.598-73.225-200.368-13.601z"/>
            <path d="M478.403 135.995c23.72-19.224 45.81-32.351 65.41-41.519 42.714-19.9 94.772-28.524 140.155-12.604 55.395 19.238 88.098 67.663 94.105 76.95l-5.34 2.653c-5.339-9.287-28.698-27.197-28.698-27.197-59.4-45.772-147.497 3.98-147.497 3.98-15.35 7.297-38.71 24.544-61.402 43.118-.947.753-1.891 1.508-2.832 2.266.941.757 1.885 1.513 2.832 2.266 22.692 18.574 46.051 35.821 61.402 43.118 0 0 88.098 49.752 147.497 3.98 0 0 23.36-17.91 28.698-27.198l5.34 2.654c-6.007 9.287-38.71 57.712-94.105 76.95-45.383 15.92-97.441 7.296-140.155-12.604-19.6-9.168-41.69-22.295-65.41-41.519-18.141 17.248-35.755 34.924-53.566 52.47 14.297 10.98 28.594 21.944 42.891 32.279 28.031 19.9 57.397 37.811 89.433 50.415 26.029 10.614 48.72 14.594 66.073 16.584 28.699 2.653 58.732-1.327 84.761-14.594 77.42-37.148 88.098-81.593 81.424-62.356-15.35 41.792-44.05 76.287-83.426 96.85-64.739 33.832-137.486 18.575-184.205.664-34.705-13.267-70.078-33.168-101.446-52.405-12.098-7.638-25.238-16.31-39.114-25.754a857.726 857.726 0 0 1-21.62 19.12c-13.348 11.94-25.361 21.228-36.04 29.188-33.37 24.544-66.073 43.782-107.453 48.425-91.706 9.921-154.838-57.245-162.688-66.054-29.355 18.212-61.757 35.917-93.596 47.48-47.386 17.91-119.466 33.831-184.205-.663-39.377-20.564-68.075-55.06-83.426-96.85-6.674-18.575 4.005 25.207 81.424 62.355 26.696 12.604 56.062 17.247 84.761 14.594 17.353-1.99 39.377-5.97 66.073-16.584 32.036-12.604 61.402-31.178 89.433-50.415 14.683-10.614 29.366-21.228 44.049-33.168 40.014-31.693 78.272-65.133 116.418-99.228-38.146-34.095-76.404-67.535-116.418-99.228C43.257 72.474 28.574 61.86 13.89 51.246-14.14 32.01-43.506 13.435-75.542.831c-26.696-10.614-48.72-14.594-66.073-16.584-28.699-2.654-58.065 1.99-84.76 14.594-77.42 37.148-88.099 80.93-81.425 62.355 15.35-41.791 44.05-76.286 83.426-96.85 64.739-34.494 136.819-18.574 184.205-.663C-8.33-24.754 24.07-7.05 53.427 11.163c7.85-8.81 70.982-75.975 162.688-66.054 41.38 4.643 74.083 23.88 107.453 48.425 10.679 7.96 22.692 17.247 36.04 29.188a857.73 857.73 0 0 1 21.62 19.12c13.876-9.444 27.016-18.116 39.114-25.754C451.71-3.149 487.083-23.05 521.788-36.317c46.719-17.91 119.466-33.168 184.205.663 39.377 20.564 68.075 55.059 83.426 96.85 6.674 19.238-4.005-25.207-81.424-62.355-26.029-13.267-56.062-17.248-84.76-14.594-17.353 1.99-40.045 5.97-66.074 16.584-32.036 12.604-61.402 30.514-89.433 50.415-14.297 10.335-28.594 21.299-42.891 32.279 17.81 17.546 35.425 35.221 53.566 52.47zm-50.983 47.647l-20.426-19.625c-12.275-11.513-24.46-23.516-36.671-35.639-21.235 18.105-42.165 36.586-63.062 55.264 20.897 18.678 41.827 37.159 63.062 55.264 12.211-12.124 24.396-24.126 36.671-35.64l20.426-19.624zM323.482 284.874c-27.06-19.499-55.18-40.333-82.672-61.043-63.181 47.594-129.676 95.846-179.012 127.035 71.77 59.624 151.252 22.683 200.369-13.6 21.19-15.592 41.472-33.552 61.315-52.392zM61.798 16.418c49.336 31.188 115.83 79.441 179.012 127.035 27.492-20.71 55.612-41.545 82.672-61.044-19.843-18.84-40.125-36.8-61.315-52.39C213.05-6.266 133.569-43.206 61.799 16.418z"/>
        </g>
    </g>
</svg>
