<svg xmlns="http://www.w3.org/2000/svg" width="30" height="30" viewBox="0 0 30 30">
    <path fill="#1A9456" fill-rule="nonzero" d="M28.258 26.498a1.246 1.246 0 0 1-1.76 1.76l-7.873-7.872a10.503 10.503 0 0 1-6.617 2.315c-5.888 0-10.693-4.797-10.693-10.693 0-5.88 4.812-10.693 10.693-10.693 5.903 0 10.693 4.79 10.693 10.693 0 2.418-.833 4.742-2.317 6.616l7.874 7.874zM12.008 3.732c-4.553 0-8.276 3.723-8.276 8.276 0 4.56 3.708 8.275 8.276 8.275a8.27 8.27 0 0 0 8.275-8.275c0-4.56-3.708-8.276-8.275-8.276z"/>
</svg>
