<svg xmlns="http://www.w3.org/2000/svg" width="70" height="70" viewBox="0 0 70 70">
    <path fill="#A27F13" fill-rule="nonzero" d="M55.028 3.241H14.972a8.012 8.012 0 0 0-8.011 8.011V59.32a8.012 8.012 0 0 0 8.011 8.011h40.056a8.012 8.012 0 0 0 8.011-8.01V11.251a8.012 8.012 0 0 0-8.011-8.01zm4.005 56.078a4.008 4.008 0 0 1-4.005 4.006H14.972a4.01 4.01 0 0 1-4.005-4.006V11.252a4.01 4.01 0 0 1 4.005-4.005h40.056a4.008 4.008 0 0 1 4.005 4.005V59.32zM18.978 20.198h32.044v-4.006H18.978v4.006zm10.242 36.73l15.735-15.735-2.361-2.362-15.735 15.735 2.361 2.362zM26.86 41.193l15.735 15.735 2.361-2.362L29.22 38.831l-2.361 2.362zm-7.881-10.58h21.63v-4.006h-21.63v4.006z"/>
</svg>
