<svg xmlns="http://www.w3.org/2000/svg" width="73" height="79" viewBox="0 0 73 79">
    <g fill="#FFF" fill-rule="evenodd">
        <path d="M24.62 28.264c.501-.566 4.533-4.881 10.389-4.244 2.642.299 4.73 1.535 6.861 3.111a32.28 32.28 0 0 1 2.302 1.876c.469.402.928.813 1.38 1.228a87.748 87.748 0 0 1 2.498-1.655c2.003-1.235 4.262-2.514 6.478-3.366 2.983-1.151 7.629-2.131 11.763.042 2.514 1.321 4.347 3.538 5.327 6.222.426 1.236.725 2.643.64 4.262l-.512-.042s-.384-5.839-5.327-8.226c-1.663-.852-3.58-1.108-5.413-.937a15.587 15.587 0 0 0-4.22 1.065c-2.045.81-3.92 1.96-5.71 3.24-.913.663-1.826 1.368-2.739 2.073 2.275 2.255 4.5 4.542 7.043 6.578 1.45 1.193 2.941 2.301 3.921 2.77 0 0 5.626 3.196 9.419.256 0 0 1.492-1.151 1.833-1.748l.34.17c-.383.597-2.471 3.709-6.009 4.945-2.898 1.022-6.222.468-8.95-.81-1.449-.682-3.11-1.705-4.9-3.282l-3.836-3.708c-.784-.74-1.562-1.51-2.342-2.29a244.219 244.219 0 0 0-4.52 3.995c3.878 2.983 6.99 5.54 7.97 6.308h-8.524c-1.065-.938-2.088-1.918-3.154-2.856a190.97 190.97 0 0 1-3.153 2.856h-8.61c.98-.768 4.135-3.325 7.97-6.308-2.6-2.344-5.2-4.645-7.927-6.819-.937-.767-1.875-1.449-2.813-2.13-1.79-1.237-3.665-2.43-5.71-3.24a15.971 15.971 0 0 0-4.22-1.065 10.369 10.369 0 0 0-5.412.937c-4.944 2.387-5.327 8.226-5.327 8.226l-.512.042c-.085-1.62.213-3.068.64-4.262.98-2.684 2.812-4.9 5.327-6.222 4.134-2.216 8.736-1.193 11.762-.042 2.034.742 4.103 1.88 5.977 3.05zm.535.338c3.15 2.003 7.396 5.103 11.43 8.161 1.756-1.33 3.552-2.669 5.28-3.922-1.267-1.21-2.562-2.364-3.915-3.366-3.137-2.33-8.212-4.704-12.795-.873zM36.628.878c.256.768.47 1.535.682 2.344a8.538 8.538 0 0 1 2.94-.51c3.922 0 7.289 2.599 8.908 6.434-1.705-1.917-4.006-3.11-6.563-3.196a10.137 10.137 0 0 1 5.072 8.78c0 .639-.043 1.235-.171 1.832-.767-3.452-3.239-6.265-6.52-7.373 1.875 1.79 3.068 4.262 3.068 7.032 0 2.344-.81 4.475-2.216 6.137a9.294 9.294 0 0 0 .383-2.685c0-3.111-1.534-5.881-3.878-7.671 0 4.006-.64 7.799-1.705 11.038v-.043.043c-1.108-3.239-1.704-6.99-1.704-11.038-2.344 1.747-3.879 4.56-3.879 7.671 0 .938.128 1.833.384 2.685-1.364-1.662-2.216-3.793-2.216-6.137A9.618 9.618 0 0 1 32.28 9.19c-3.281 1.108-5.753 3.921-6.52 7.373a8.626 8.626 0 0 1-.17-1.833c0-3.793 2.045-7.074 5.07-8.779-2.556.085-4.858 1.279-6.562 3.196 1.619-3.793 4.986-6.435 8.907-6.435 1.023 0 2.003.17 2.94.511.214-.81.427-1.576.682-2.344zM4.665 34.248l3.409-3.409 2.983 2.983 2.984-2.983 3.452 3.41-3.452 3.41-2.984-2.984-2.983 2.983-3.41-3.41z"/>
        <path fill-rule="nonzero" d="M7.491 76.584h-.996V71.48l-1.867 5.104h-.716l-1.836-5.01v5.01h-.374V70.61H2.73l1.868 5.042 1.867-5.042h1.027v5.975zm2.397-5.477a.327.327 0 0 1-.156.28c-.093.093-.218.124-.373.124a.543.543 0 0 1-.374-.124c-.093-.094-.155-.187-.155-.28 0-.125.062-.218.155-.28.094-.094.218-.125.374-.125.155 0 .249.031.373.125a.371.371 0 0 1 .156.28zm-.125 5.477h-.809v-4.388c.311 0 .56-.062.81-.125v4.513zm5.385 0h-.81V73.1c0-.498-.249-.747-.747-.747-.466 0-.902.217-1.244.653-.218.28-.343.53-.343.716v2.894h-.809v-4.42c.28 0 .56-.03.81-.092v1.058c.28-.374.56-.623.84-.778.31-.187.653-.28 1.027-.28.373 0 .684.093.902.28.25.186.342.435.342.716v3.485h.032zm2.365-5.477a.327.327 0 0 1-.156.28c-.093.093-.218.124-.373.124a.543.543 0 0 1-.374-.124c-.093-.094-.155-.187-.155-.28 0-.125.062-.218.155-.28.094-.094.218-.125.374-.125.155 0 .249.031.373.125a.371.371 0 0 1 .156.28zm-.125 5.477h-.809v-4.388c.311 0 .56-.062.81-.125v4.513zm4.7-1.182c0 .373-.187.684-.53.902a2.252 2.252 0 0 1-1.244.343c-.685 0-1.183-.187-1.525-.53-.218-.217-.311-.56-.311-.995l.498-.094c-.063.187-.063.311-.063.436 0 .28.125.529.405.716.28.186.591.28.965.28.311 0 .591-.062.81-.218a.674.674 0 0 0 .31-.591c0-.25-.124-.467-.404-.623a5.555 5.555 0 0 0-.81-.311 4.88 4.88 0 0 1-1.12-.498c-.342-.249-.529-.53-.529-.903s.187-.715.56-.933a2.252 2.252 0 0 1 1.245-.343c1.027 0 1.556.436 1.556 1.307l-.467.094c.032-.156.032-.25.032-.342a.823.823 0 0 0-.312-.654 1.319 1.319 0 0 0-.809-.25c-.311 0-.56.063-.778.219-.218.155-.342.342-.342.591 0 .28.186.498.529.716.187.093.498.218.965.405.466.155.778.31.964.435.28.25.405.53.405.84zm2.583.715c-.062.343-.342.53-.809.53-.53 0-.81-.218-.81-.685v-3.486h-.497v-.249h.498v-.747c.28-.093.56-.218.809-.373v1.089h.622v.249h-.622v3.517c0 .28.093.436.28.436.156 0 .25-.094.28-.28h.25zm3.828-3.392c0 .187-.062.467-.186.81h-.685c.124-.436.187-.685.187-.779 0-.218-.125-.342-.343-.342-.342 0-.591.218-.778.653-.155.374-.218.654-.218.872v2.676h-.84v-4.42c.28 0 .53-.03.84-.124v1.09c.312-.747.778-1.09 1.339-1.09.435-.03.684.218.684.654zm4.7-.56l-2.397 5.166c-.124.28-.249.467-.373.592-.187.186-.405.249-.685.249-.249 0-.404-.032-.529-.094-.093-.062-.187-.187-.28-.373l.374-.218c.062.311.217.498.466.498.28 0 .53-.187.685-.592l.311-.684-1.898-4.513h.871l1.494 3.61 1.65-3.61h.31v-.031zm7.252 2.21c0 .653-.125 1.182-.405 1.556-.342.498-.903.747-1.618.747-.716 0-1.276-.25-1.619-.747-.28-.405-.404-.903-.404-1.556 0-.654.124-1.183.404-1.557.343-.498.903-.747 1.619-.747.715 0 1.276.25 1.618.747.28.374.405.903.405 1.557zm-.903 0c0-1.432-.373-2.148-1.12-2.148-.747 0-1.12.716-1.12 2.148 0 1.431.373 2.147 1.12 2.147.747 0 1.12-.716 1.12-2.147zm4.046-3.113v.187l-.498.156c.031-.218.062-.374.062-.405a.627.627 0 0 0-.093-.342c-.062-.125-.187-.156-.311-.156-.156 0-.312.062-.374.187a.626.626 0 0 0-.124.404c0 .156.093.467.31.903h.841v.249h-.84v4.14h-.872v-4.14h-.809v-.25h.81v-.684c0-.28.093-.498.248-.684.187-.187.436-.28.779-.28.56-.032.871.217.871.715zm8.216 5.322h-.964v-3.112h-2.864v3.112h-.933V70.61h.933v2.552h2.864v-2.552h.964v5.975zm5.167-1.4c0 .996-.591 1.463-1.743 1.463-.747 0-1.338-.218-1.743-.623-.342-.373-.529-.871-.529-1.525 0-.405.062-.81.187-1.152.124-.373.373-.684.747-.933a2.172 2.172 0 0 1 1.245-.374c.498 0 .902.156 1.213.436.28.249.467.591.53 1.027.03.218.062.53.062.872h-3.05c.03.653.093 1.12.186 1.369.218.498.654.747 1.276.747.343 0 .654-.093.903-.311.249-.187.342-.436.342-.716 0-.125 0-.28-.03-.405l.435.094v.03h-.031zm-.872-1.027c-.03-1.276-.373-1.93-1.027-1.93-.529 0-.902.28-1.058.872-.062.186-.093.529-.155 1.058h2.24zm6.287 2.396a4.627 4.627 0 0 1-.778.094c-.342 0-.56-.063-.716-.187-.155-.125-.217-.311-.217-.592-.312.53-.779.779-1.432.779-.467 0-.84-.125-1.12-.374-.28-.249-.405-.56-.405-.934 0-.373.124-.684.404-.902.218-.156.56-.311 1.09-.436.373-.093.622-.156.747-.218.31-.124.529-.249.622-.373a.664.664 0 0 0 .094-.374c0-.28-.094-.498-.312-.653-.186-.156-.467-.218-.809-.218-.311 0-.56.062-.778.218-.218.155-.342.342-.342.591 0 .125.062.311.155.53l-.529-.094a1.562 1.562 0 0 1-.062-.374c0-.342.187-.591.591-.809a2.619 2.619 0 0 1 1.152-.249c.467 0 .84.062 1.151.218.374.156.56.436.56.747v2.77c0 .436.156.622.499.622.093 0 .217-.03.373-.093l.062.311zm-1.711-1.4v-1.525c-.156.155-.374.28-.623.373-.218.062-.405.156-.622.218-.218.093-.405.218-.498.373-.187.218-.28.498-.28.81 0 .28.062.498.155.684.156.25.374.374.654.374.373 0 .684-.156.902-.436.218-.249.312-.56.312-.871zm3.08 1.431h-.808V70.61c.28 0 .529-.031.809-.094v6.07zm3.082-.467c-.062.343-.342.53-.81.53-.528 0-.809-.218-.809-.685v-3.486h-.497v-.249h.497v-.747c.28-.093.56-.218.81-.373v1.089h.622v.249h-.622v3.517c0 .28.093.436.28.436.155 0 .249-.094.28-.28h.249zm4.855.467h-.81v-3.517c0-.498-.248-.715-.715-.715-.498 0-.934.249-1.245.747-.218.31-.311.59-.311.809v2.707h-.81V70.64c.25 0 .53-.031.81-.094v2.77c.218-.435.498-.747.81-.933.31-.187.653-.28 1.026-.28.374 0 .685.093.934.249.249.186.373.404.373.715v3.517h-.062z"/>
        <path d="M31.238 63.948c.498 0 .654-.155.654-.653V61.863c0-.716-.031-1.307-.53-1.898-.435-.53-1.058-.872-1.711-.872-2.21 0-4.482 2.801-4.669 4.886h6.256v-.03zm36.352-.778c.342.53 1.058.84 1.805.965.093.031.56.031.685.031-.031.436-.405.685-.654.747-.093 0-.218-.031-.311-.031-.623-.093-.934-.156-1.338-.405-1.09-.653-1.463-1.462-1.463-2.8 0-2.024 1.867-3.673 4.015-3.673h1.058v8.03c0 .529.031.933-.311 1.369a2.37 2.37 0 0 1-1.027.716c-.53.187-1.214.093-1.774.093v-.902h1.244c.498 0 .84-.374.84-.903v-.747-6.785h-.466c-.56 0-.996.218-1.463.592a3.649 3.649 0 0 0-.871 1.12c-.343.654-.374 2.023.03 2.583zm-4.762 3.3c0 .528-.373.902-.903.902h-1.338v.902c.591 0 1.307.094 1.899-.093.404-.124.809-.405 1.089-.716.405-.435.342-.84.342-1.37v-8.029h-1.12v8.403h.031zm-4.326-1.62h1.058V53.74h-1.058v11.11zm-11.235-1.68c.529.747 1.805 1.027 2.956 1.027v-5.26h-.498c-.622 0-1.09.218-1.587.592a4.03 4.03 0 0 0-.965 1.12c-.311.592-.311 1.961.094 2.521zm4.077-5.135h-1.152c-2.334 0-4.357 1.618-4.357 3.672 0 1.37.404 2.148 1.587 2.802.903.498 2.832.622 3.89.622.032-2.365.032-4.73.032-7.096zM39.92 64.851h1.059V53.74H39.92v11.11zm23.53-10.053c.466 0 .84.374.84.84 0 .467-.374.84-.84.84a.837.837 0 0 1-.84-.84c0-.466.373-.84.84-.84zm-15.22 0c.467 0 .84.374.84.84 0 .467-.373.84-.84.84a.837.837 0 0 1-.84-.84c0-.466.373-.84.84-.84zm2.303 0c.467 0 .84.374.84.84 0 .467-.373.84-.84.84a.837.837 0 0 1-.84-.84c.031-.466.405-.84.84-.84zm-46.684 0c.467 0 .84.374.84.84 0 .467-.373.84-.84.84a.837.837 0 0 1-.84-.84c0-.466.373-.84.84-.84zm2.334 0c.467 0 .84.374.84.84 0 .467-.373.84-.84.84a.837.837 0 0 1-.84-.84c0-.466.373-.84.84-.84zM54.58 66.47c0 .53-.373.903-.902.903H52.34v.902c.59 0 1.307.094 1.898-.093.405-.124.81-.405 1.09-.716.404-.435.342-.84.342-1.37v-8.029h-1.12v8.403h.03zM3.04 62.952c.499.716 1.744.996 2.864.996v-5.104h-.467c-.591 0-1.058.218-1.525.592-.404.31-.747.715-.934 1.089-.31.56-.342 1.867.063 2.427zm32.929 1.214h-2.926v-2.21c0-.466-.062-.902-.155-1.307a3.427 3.427 0 0 0-.903-1.556c-.902-.871-2.303-1.12-3.797-.467-2.459 1.058-2.988 3.517-3.86 4.7-.124.155-.248.28-.373.404V60.4h-1.058v3.548H20.19c0-.933-.063-2.054-.374-2.894-.311-.84-1.058-1.525-1.867-1.899-1.09-.529-2.584-.747-3.797-.778-1.027-.03-2.054.031-3.082.031v.84h1.525c1.774 0 3.766-.217 5.23 1.121.684.654.933 1.307.995 2.117 0 .186.031.373.031.59v.903H7.056v-6.006H5.904c-2.272 0-4.233 1.587-4.233 3.548 0 1.058.063 1.65 1.027 2.365.405.311.903.56 1.37.685.436.124.84.03 1.276-.031l.498-.094.062.405h31.123V53.74h-1.058v10.426z"/>
    </g>
</svg>
